<svg xmlns="http://www.w3.org/2000/svg" width="2500" height="2500" viewBox="0 0 192.756 192.756"><g fill="rgb(202, 31, 31)" fill-rule="evenodd" clip-rule="evenodd"><path fill="red" d="M -3.1 5.4 h 192.8 v 192.8 H -3.1 V 5.4 z"/><path fill="white" d="M 5.4 160.5 h 9.6 l -0.4 2.2 h -3.2 v 11.2 h -2.8 V 162.7 H 5.4 v -2.2 z M 16.2 160.5 h 2.8 v 5.2 h 3.8 v -5.2 h 2.8 v 13.4 h -2.8 v -6 h -3.8 v 6 h -2.8 v -13.4 z M 28.2 160.5 h 7.6 l -0.2 2.2 h -4.6 v 3 h 3.8 v 2.2 h -3.8 v 3.6 h 5 v 2.4 h -7.8 v -13.4 z M 42.3 160.5 h 3.4 l 1.8 6.6 c 0.2 1 0.4 1.4 0.4 2 c 0.2 -0.6 0.4 -1.2 0.6 -2 l 1.8 -6.6 h 3.4 l 1.2 13.4 h -2.6 l -0.4 -7.2 c -0.2 -0.8 -0.2 -1.4 -0.2 -2.2 c -0.2 0.8 -0.2 1.2 -0.4 2 l -2.2 7.4 h -2.4 l -1.8 -7.2 c -0.2 -0.6 -0.6 -2.2 -0.6 -2.2 c 0 0.8 0 1.4 -0.2 2.4 l -0.4 7 h -2.8 l 1.4 -13.4 z M 62.1 160.3 c 3.6 0 5.8 2.6 5.8 6.8 c 0 3 -1.2 5.2 -3 6.4 c -0.8 0.4 -1.6 0.6 -2.8 0.6 c -2 0 -3.2 -0.6 -4.4 -2 c -1 -1.2 -1.4 -3 -1.4 -5 c 0 -2.8 1 -5.2 3 -6.2 c 0.8 -0.4 1.8 -0.6 2.8 -0.6 z m 0 2 c -1 0 -1.8 0.4 -2.2 1.2 s -0.6 2 -0.6 3.6 c 0 2.4 0.4 3.8 1.2 4.4 c 0.4 0.4 1 0.4 1.6 0.4 c 1.8 0 2.6 -1.4 2.6 -4.8 c 0 -1.4 0 -2.4 -0.4 -3 c -0.2 -0.8 -0.8 -1.8 -2.2 -1.8 z M 67.9 160.5 h 3 l 2.2 6.8 c 0 0.4 0.2 1 0.4 1.6 c 0 0.4 0 0.4 0.2 0.8 c 0 -0.4 0 -0.4 0.2 -1 c 0.2 -0.6 0.2 -1 0.6 -1.6 l 2.2 -6.6 l 2.8 -0.2 l -4.6 13.6 H 72.5 l -4.6 -13.4 z M 80.7 160.5 h 2.8 v 13.4 h -2.8 v -13.4 z M 86.1 160.5 h 7.8 l -0.4 2.2 h -4.6 v 3 h 3.8 v 2.2 h -3.8 v 3.6 h 5.2 v 2.4 h -8 v -13.4 z M 99.5 160.5 h 3 l 2.4 5.2 c 0.8 1.6 1.2 3 1.6 3.8 c -0.2 -1 -0.2 -2.6 -0.2 -3.6 l -0.2 -5.4 h 2.6 v 13.4 h -2.8 l -2.2 -5.2 c -0.8 -1.6 -1.6 -3.6 -1.8 -4.4 v 3.8 l 0.2 5.8 h -2.6 v -13.4 z M 111.3 160.5 h 7.8 l -0.4 2.2 h -4.6 v 3 h 3.8 v 2.2 h -3.8 v 3.6 h 5 v 2.4 h -7.8 v -13.4 z M 119.9 160.5 h 9.6 l -0.4 2.2 h -3.2 v 11.2 h -2.8 V 162.7 H 119.9 v -2.2 z M 129.7 160.5 h 2.8 l 1.2 5.2 c 0.6 2.6 0.8 4.4 0.8 4.4 c 0 -0.6 0.2 -2.4 0.6 -4.2 l 1.2 -5.4 h 3 l 1.2 6 c 0.2 1.2 0.6 3.4 0.6 3.4 c 0 -0.4 0.4 -3.2 0.8 -4.4 l 1 -5 h 2.8 l -3.2 13.4 h -3 l -1.2 -5.4 c -0.4 -2.2 -0.6 -3.8 -0.6 -4 c 0 0 -0.2 2 -0.6 4 l -1.2 5.4 h -3 l -3.2 -13.4 z M 151.9 160.3 c 3.6 0 5.8 2.6 5.8 6.8 c 0 3 -1 5.2 -3 6.4 c -0.8 0.4 -1.6 0.6 -2.6 0.6 c -2 0 -3.4 -0.6 -4.4 -2 c -1 -1.2 -1.6 -3 -1.6 -5 c 0 -2.8 1.2 -5.2 3.2 -6.2 c 0.6 -0.4 1.6 -0.6 2.6 -0.6 z m 0 2 c -0.8 0 -1.6 0.4 -2 1.2 c -0.6 0.8 -0.8 2 -0.8 3.6 c 0 2.4 0.4 3.8 1.2 4.4 c 0.6 0.4 1 0.4 1.6 0.4 c 2 0 2.8 -1.4 2.8 -4.8 c 0 -1.4 -0.2 -2.4 -0.4 -3 C 154.1 163 153.1 162.3 151.9 162.3 z M 159.6 160.3 l 5 0.2 c 2.4 0 4 1.4 4 3.8 c 0 2 -1.4 3.8 -3 3.8 c 0.2 0.2 0.4 0.2 0.6 0.6 c 0.8 0.8 3.2 5.2 3.2 5.2 h -3.2 c -0.6 -1 -0.8 -1.4 -1.2 -2.2 c -1.4 -2.4 -1.8 -3.2 -2.2 -3.4 h -0.4 v 5.6 h -2.8 v -13.6 h 0 z m 2.8 2.2 v 3.6 h 0.8 c 1.2 0 1.6 0 2 -0.4 c 0.4 -0.2 0.6 -0.8 0.6 -1.2 c 0 -1 -0.4 -1.4 -1 -1.8 c -0.4 0 -0.8 -0.2 -1.6 -0.2 h -0.8 v 0 z M 170.8 160.5 h 2.8 v 6 l 3.8 -6 h 3.4 l -4.4 6.2 l 4.8 7.2 h -3.6 l -4 -7 v 7 h -2.8 v -13.4 z"/><path d="M 170 29.4 H 17.2 c -5.8 0 -10.6 4.8 -10.8 10.6 v 96.7 c 0.4 5.8 5.2 10.4 11 10.4 l 163.5 0.2 V 39.8 c -0.2 -5.8 -5 -10.4 -11 -10.4 z M 40.4 129.9 c 0 2.4 -2 4.6 -4.6 4.6 H 24.6 c -2.4 0 -4.4 -2.2 -4.4 -4.6 v -4.8 c 0 -2.6 2 -4.6 4.4 -4.6 h 11.2 c 2.6 0 4.6 2 4.6 4.6 v 4.8 z m 0 -26.6 c 0 2.4 -2 4.4 -4.6 4.4 H 24.6 c -2.4 0 -4.4 -2 -4.4 -4.4 v -5 c 0 -2.4 2 -4.4 4.4 -4.4 h 11.2 c 2.6 0 4.6 2 4.6 4.4 v 5 z m 0 -26.8 c 0 2.6 -2 4.6 -4.6 4.6 H 24.6 c -2.4 0 -4.4 -2 -4.4 -4.6 v -4.8 c 0 -2.4 2 -4.4 4.4 -4.4 h 11.2 c 2.6 0 4.6 2 4.6 4.4 v 4.8 z m 123.3 58.3 h -24.4 V 85.9 c -8.8 21 -20.8 48.8 -20.8 48.8 h -20.4 s -12 -27.8 -21 -48.8 v 48.8 H 54.7 V 61.8 c 0 -8.4 0 -8.4 -10.2 -10 l -5.2 -0.8 v -8.8 h 41.6 s 22.2 47.8 27.2 59.3 h 0.2 c 5 -11.4 27.2 -59.3 27.2 -59.3 h 28.2 v 92.5 h 0 z" fill="white"/></g></svg>